# xmcd
# Copyright (C) 1995-1998 Ti Kan
#
# Track frame offsets:
#       150
#       11797
#       39195
#       51767
#       63210
#       74142
#       96967
#       119840
#       132515
#       145737
#       161432
#
# Disc length: 2254 seconds
#
# Revision: 0
# Processed by: cddbd v1.4PL0 Copyright (c) Steve Scherf et al.
# Submitted via: CD-DA X-Tractor v0.20
#
DISCID=a108cc0b
DTITLE=Stefan Distelmann - Rückblick
DYEAR=1900
DGENRE=
TTITLE0=Django
TTITLE1=Rückblick
TTITLE2=Guitar Boogie
TTITLE3=Brief an 'nen Kumpel
TTITLE4=Thüringer Boogie
TTITLE5=Heimweg
TTITLE6=Biographie für Viele
TTITLE7=Harps Boogie
TTITLE8=Blues vom "Blauen Club"
TTITLE9=Thank you, Red
TTITLE10=Schlussliedchen
EXTD=
EXTT0=
EXTT1=
EXTT2=
EXTT3=
EXTT4=
EXTT5=
EXTT6=
EXTT7=
EXTT8=
EXTT9=
EXTT10=
PLAYORDER=
